<svg width="24" height="24" viewBox="0 0 24 24" fill="none" xmlns="http://www.w3.org/2000/svg">
<path d="M8.76799 3.71L10.838 2.87C11.648 2.54 12.578 2.93 12.908 3.75L13.538 5.29C13.868 6.1 13.478 7.03 12.658 7.37L10.368 8.3C10.608 9.45 10.978 10.8 11.558 12.26C12.208 13.91 12.958 15.27 13.638 16.36L15.928 15.43C16.748 15.1 17.678 15.49 18.008 16.31L18.638 17.85C18.968 18.67 18.578 19.6 17.758 19.93L15.688 20.77L15.648 20.79C13.418 21.69 10.848 20.82 9.68799 18.72C8.90799 17.31 8.13799 15.73 7.42799 13.96C6.78799 12.36 6.28799 10.83 5.90799 9.41C5.27799 7.08 6.49799 4.65 8.72799 3.74L8.76799 3.71Z" stroke="white" stroke-width="1.2" stroke-miterlimit="10" stroke-linecap="round" stroke-linejoin="round"/>
</svg>
